<svg xmlns="http://www.w3.org/2000/svg" viewBox="0 0 125 125"><defs><style>.cls-1{fill:#252525;}.cls-2{fill:#5ca6d7;}</style></defs><title>Asset 2</title><g id="Layer_2" data-name="Layer 2"><g id="Hand_Logo"><rect id="BG" class="cls-1" width="125" height="125"/><g id="Hand"><g id="Thumb"><path id="thumb-top" class="cls-2" d="M96,76.45c-5.9-2.68-.18-17,6.43-14.53C108.35,64.59,102.63,79,96,76.45Z"/><path id="thumb-bottom" class="cls-2" d="M87.93,94.88c-5.59-2.23,1.75-19,7.16-16.46C100.68,80.64,93.34,97.41,87.93,94.88Z"/></g><g id="Palm"><path id="palm-bottom" class="cls-2" d="M39.09,72c-.83,3.51.15,6.91,1.81,10A9.67,9.67,0,0,0,46,86.79c2.53,1,5.1,1.88,7.69,2.66,4.71,1.43,9.4,2.84,13.67,5.35a14.86,14.86,0,0,1,4.21,3.48c3.09,3.88,2.09,7.48-1.12,10.31-2.16,1.89-4.86,2.66-7.58,3.25a32.94,32.94,0,0,1-12.86.25A18.67,18.67,0,0,1,35.11,97.41,33,33,0,0,1,35,85.94a52.54,52.54,0,0,1,3.19-12.13c.26-.63.6-1.23.91-1.84C39.22,72,39,71.94,39.09,72Z"/><path id="palm-top" class="cls-2" d="M80.79,95.16c-.78-3-2.89-4.41-5.06-5.75A43,43,0,0,0,64.41,84.9c-2.67-.74-5.35-1.45-8-2.32a30.75,30.75,0,0,1-4.35-2,8.44,8.44,0,0,1-3.33-3.11c-1.8-2.9-1-6,2.59-9.16a8.28,8.28,0,0,1,2-1.33A18.56,18.56,0,0,1,66,66c9.53,2.35,14.62,8.39,16,18.46a36.53,36.53,0,0,1,.2,5.34,11.39,11.39,0,0,1-.35,2.84A11,11,0,0,1,80.79,95.16Z"/></g><g id="Index"><path id="index-top" class="cls-2" d="M84.22,35.49c-4.8-1.58-2.38-14.67,4.41-13.51C93.44,23.57,91,36.66,84.22,35.49Z"/><path id="index-bottom" class="cls-2" d="M75.74,61.48c-5.92-1.3,1.57-26.15,7.7-23.6C89.35,39.17,81.87,64,75.74,61.48Z"/></g><g id="Middle"><path id="middle-top" class="cls-2" d="M63.69,26.67c-5,0-6.92-13.15-.1-14.2C68.64,12.44,70.5,25.62,63.69,26.67Z"/><path id="middle-bottom" class="cls-2" d="M63.94,58.84c-6.35.24-5.81-26.41-2.33-29.54C70.47,22,70.82,60.45,63.94,58.84Z"/></g><g id="Ring"><path id="ring-top" class="cls-2" d="M41.46,32c-4.88,1.26-9.92-11.09-3.59-13.77C42.76,16.93,47.79,29.27,41.46,32Z"/><path id="ring-bottom" class="cls-2" d="M49.05,61.05c-5.65,2.23-7.82-13.88-9.35-19.87a7.56,7.56,0,0,1,.54-5.41C45.12,26.62,57,59,49.05,61.05Z"/></g><g id="Pinky"><path id="pinky-top" class="cls-2" d="M26.49,50.38c-3.86,2.25-11.54-9.45-7-12.4C23.37,35.73,31.05,47.42,26.49,50.38Z"/><path id="pinky-bottom" class="cls-2" d="M36.53,68.26c-3.58,2.6-7.45-6.33-9.44-10a6.17,6.17,0,0,1-.7-3.9C27.79,46.17,42.37,64.25,36.53,68.26Z"/></g></g></g></g></svg>